# xmcd CD database file
#
# Track frame offsets:
#	150
#	16917
#	28555
#	47317
#	66890
#	88431
#	115827
#	139251
#	158472
#	175803
#	201471
#	223698
#	247716
#	272556
#	286563
#
# Disc length: 4003 seconds
#
# Revision: 2
# Processed by: cddbd v1.5.1PL2 Copyright (c) Steve Scherf et al.
# Submitted via: CDex 1.51
#
DISCID=c80fa10f
DTITLE=Ivan Hayek - Weihnachten mit IVAN
DYEAR=2003
DGENRE=New Age
TTITLE0=Erster Advent
TTITLE1=Intermezzo: Gedanken
TTITLE2=Weihnachtsmarkt
TTITLE3=Intermezzo: Gedanken
TTITLE4=Zweiter Advent
TTITLE5=Intermezzo: Gedanken
TTITLE6=Prager Schlittenfahrt
TTITLE7=Intermezzo: Gedanken
TTITLE8=Dritter Advent
TTITLE9=Intermezzo: Gedanken
TTITLE10=Vierter Advent
TTITLE11=Intermezzo: Gedanken
TTITLE12=Schneeballschlacht
TTITLE13=Neujahr
TTITLE14=Garmischer Schlittenfahrt
EXTD=YEAR: 2003
EXTT0=
EXTT1=
EXTT2=
EXTT3=
EXTT4=
EXTT5=
EXTT6=
EXTT7=
EXTT8=
EXTT9=
EXTT10=
EXTT11=
EXTT12=
EXTT13=
EXTT14=
PLAYORDER=
